<svg version="1.1" id="Ebene_1" xmlns="http://www.w3.org/2000/svg" x="0" y="0" viewBox="0 0 1000 680" xml:space="preserve">
  <style>
    .st0{fill:none}.st1{opacity:.4;fill:#02a6d1;enable-background:new}.st2{fill:#17b8e1}.st3{fill:#04bbe5}.st5{fill:#012b4c}.st6{fill:#fdc400}.st8{opacity:.43;fill:#d69b63;enable-background:new}.st11{fill:#d2e7f0}.st12{fill:#b9d5e0}.st13{opacity:.47;fill:#93bac8;enable-background:new}.st14{fill:#fff}.st17{opacity:.4}.st18{fill:#95bbcb}
  </style>
  <path class="st0" d="M0 0h1000v680H0z"/>
  <path class="st1" d="M163.6 623.3c-1.2-.6-9.1-6.5-56.6-56.4-12.5-13.1-19.4-30.3-19.4-48.3v-50.5c7.7-2.6 13.3-9.9 13.3-18.4 0-10.9-8.7-19.6-19.6-19.6s-19.6 8.7-19.6 19.6c0 7.9 4.7 14.6 11.5 17.8v30.3c-2.4-2.6-4.9-5.1-8.1-7.1l-26.3-17.8c-9.5-6.3-15-17-15-28.5v-66.9c7.7-1.8 13.5-8.5 13.5-16.8 0-9.5-7.7-17.2-17.2-17.2s-17.2 7.7-17.2 17.2c0 7.9 5.3 14.6 12.7 16.6v67.1c0 14.1 6.9 27.3 18.6 35.2l26.3 17.8c5.7 4 10.1 9.3 12.7 15.6v5.5c0 22 8.3 42.6 23.4 58.4 53.2 56 59.8 60.4 64.1 60.4h1.2l-1.4-14.6c1.8-.2 2.9.6 3.1.6zM10.7 360.4c0-4.9 4-9.1 9.1-9.1s9.1 4 9.1 9.1c0 4.9-4 9.1-9.1 9.1s-9.1-4.1-9.1-9.1zM81.1 443c3.6 0 6.5 3 6.5 6.5s-3 6.5-6.5 6.5c-3.6 0-6.5-3-6.5-6.5s3-6.5 6.5-6.5zM805.9 469.7l-1.6 15.6h1.2c4.6 0 11.7-4.7 68.5-64.5 16-17 24.9-39.2 24.9-62.5v-5.9c2.8-6.7 7.3-12.7 13.5-16.8l28.3-19.2c12.5-8.5 20-22.6 20-37.6V207c7.7-2.2 13.7-9.3 13.7-17.6 0-10.1-8.3-18.4-18.4-18.4-10.1 0-18.4 8.3-18.4 18.4 0 8.7 6.1 16 14.4 17.8V279c0 12.3-6.1 23.6-16.2 30.5l-28.3 19.2c-3.2 2.2-6.1 4.7-8.5 7.5v-32.5c7.1-3.4 12.3-10.5 12.3-19 0-11.5-9.3-21-21-21-11.5 0-21 9.3-21 21 0 9.1 5.9 16.8 14.1 19.8v54c0 19.4-7.3 37.8-20.8 51.7-50.7 53.2-59.4 59.6-60.6 60.2.1.1 1.7-.9 3.9-.7zm150.2-270.8c-5.3 0-9.7-4.4-9.7-9.7s4.4-9.7 9.7-9.7 9.7 4.4 9.7 9.7-4.6 9.7-9.7 9.7zm-58.8 85.7c0 4-3.2 7.1-7.1 7.1-4 0-7.1-3.2-7.1-7.1 0-4 3.2-7.1 7.1-7.1s7.1 3.2 7.1 7.1z"/>
  <path class="st2" d="M773.1 344.9l-13.4-13.4 39.6-39.6c6.6-6.5 10.3-15.5 10.3-24.6V55.5h18.9v211.8c0 14.2-5.8 28-15.9 38l-39.5 39.6zM856.3 165.1c-8.4 0-15.2-6.8-15.2-15.2s6.8-15.2 15.2-15.2c8.4 0 15.2 6.8 15.2 15.2s-6.8 15.2-15.2 15.2zm0-20.2c-2.7 0-5 2.2-5 5s2.2 5 5 5c2.7 0 5-2.2 5-5s-2.3-5-5-5z"/>
  <path class="st2" d="M828.1 250H818v-16c0-12.3 6-24 15.9-31.2l5.5-4.2c7.4-5.4 11.8-14 11.8-23v-15h10.1v15c0 12.3-6 23.9-15.9 31.1l-5.6 4.3c-7.4 5.3-11.8 13.9-11.8 23v16zM819.1 61c-10.5 0-19-8.5-19-19s8.5-19 19-19 19 8.5 19 19-8.5 19-19 19zm0-27.8c-4.8 0-8.8 3.9-8.8 8.8s3.9 8.8 8.8 8.8 8.8-3.9 8.8-8.8-4-8.8-8.8-8.8z"/>
  <path class="st3" d="M343.4 45.8h15.4v158.1h-15.4z"/>
  <path class="st3" d="M351.1 50.6c-9 0-16.3-7.3-16.3-16.3S342.1 18 351.1 18s16.3 7.3 16.3 16.3-7.3 16.3-16.3 16.3zm0-23a6.7 6.7 0 100 13.4 6.7 6.7 0 000-13.4zM166.4 61c-10.6 0-19.2-8.6-19.2-19.2s8.6-19.2 19.2-19.2 19.2 8.6 19.2 19.2S177 61 166.4 61zm0-23c-2.1 0-3.8 1.7-3.8 3.8s1.7 3.8 3.8 3.8 3.8-1.7 3.8-3.8-1.7-3.8-3.8-3.8zM117.9 83.6c-5.5 0-9.9-4.5-9.9-9.9s4.5-9.9 9.9-9.9 9.9 4.5 9.9 9.9-4.4 9.9-9.9 9.9zm0-13c-1.7 0-3.1 1.4-3.1 3.1s1.4 3.1 3.1 3.1 3.1-1.4 3.1-3.1-1.4-3.1-3.1-3.1zM205.2 65.8c-5.5 0-9.9-4.5-9.9-9.9s4.5-9.9 9.9-9.9 9.9 4.5 9.9 9.9-4.4 9.9-9.9 9.9zm0-13c-1.7 0-3.1 1.4-3.1 3.1s1.4 3.1 3.1 3.1 3.1-1.4 3.1-3.1-1.4-3.1-3.1-3.1zM95.2 180.1c-10.6 0-19.2-8.6-19.2-19.2s8.6-19.2 19.2-19.2 19.2 8.6 19.2 19.2-8.6 19.2-19.2 19.2zm0-23c-2.1 0-3.8 1.7-3.8 3.8s1.7 3.8 3.8 3.8 3.8-1.7 3.8-3.8-1.7-3.8-3.8-3.8zM386.5 74.9c-9 0-16.3-7.3-16.3-16.3s7.3-16.3 16.3-16.3 16.3 7.3 16.3 16.3-7.3 16.3-16.3 16.3zm0-23a6.7 6.7 0 100 13.4 6.7 6.7 0 000-13.4zM330.3 145.3c-10.1-6.1-16.4-17.2-16.4-29.1v-6.5c4.2-2.8 6.9-7.5 6.9-12.9 0-8.5-6.9-15.4-15.4-15.4S290 88.3 290 96.8c0 5.5 3 10.5 7.3 13.1v6.3c0 17.6 9.3 34.2 24.3 43.3 10.1 6.1 16.4 17.2 16.4 29.1v41.6h16.6v-41.6c0-17.6-9.3-34-24.3-43.3zm-24.9-55.6c4 0 7.1 3.2 7.1 7.1s-3.2 7.1-7.1 7.1c-4 0-7.1-3.2-7.1-7.1s3.1-7.1 7.1-7.1z"/>
  <path class="st3" d="M360.5 155h-15.4v-11.5c0-11.9 4.6-23 13-31.4l11.1-11.1c5.4-5.6 8.5-13 8.5-20.5V69.1H393v11.5c0 11.4-4.7 22.8-12.9 31.3l-.1.1-11 11.1c-5.4 5.4-8.4 12.7-8.4 20.4V155z"/>
  <path d="M802.3 650.6H133.2V157.2c0-2.6 2-4.6 4.6-4.6h659.8c2.6 0 4.6 2 4.6 4.6v493.4h.1z" fill="#004574"/>
  <path class="st5" d="M133.2 644.4h669.1v6.1H133.2z"/>
  <path class="st6" d="M719.6 648.4l80.6-80.6c2.4-2.4 6.5-.8 6.5 2.8v80.6c0 2.2-1.8 3.8-3.8 3.8h-80.6c-3.5-.1-5.1-4-2.7-6.6z"/>
  <linearGradient id="SVGID_1_" gradientUnits="userSpaceOnUse" x1="763.6" y1="566.754" x2="763.6" y2="647.895" gradientTransform="translate(0 .205)">
    <stop offset=".481" stop-color="#fff" stop-opacity="0"/>
    <stop offset="1" stop-color="#fff"/>
  </linearGradient>
  <path d="M800.1 568.1l-79.6 79.6c.6.2 1.2.4 1.8.4h80.6c2.2 0 3.8-1.8 3.8-3.8v-73.4c-.2-3.6-4.2-5.2-6.6-2.8z" opacity=".4" fill="url(#SVGID_1_)"/>
  <path class="st8" d="M802.7 648h-80.6c-.6 0-1.2-.2-1.8-.4l-1 1c-2.4 2.4-.8 6.5 2.8 6.5h80.6c2.2 0 3.8-1.8 3.8-3.8v-7.1c0 2-1.6 3.8-3.8 3.8z"/>
  <path class="st6" d="M214.1 648.4l-80.6-80.6c-2.4-2.4-6.5-.8-6.5 2.8v80.6c0 2.2 1.8 3.8 3.8 3.8h80.6c3.3-.1 5.1-4 2.7-6.6z"/>
  <linearGradient id="SVGID_2_" gradientUnits="userSpaceOnUse" x1="-2397.612" y1="566.754" x2="-2397.612" y2="647.895" gradientTransform="matrix(-1 0 0 1 -2227.512 .205)">
    <stop offset=".481" stop-color="#fff" stop-opacity="0"/>
    <stop offset="1" stop-color="#fff"/>
  </linearGradient>
  <path d="M133.6 568.1l79.6 79.6c-.6.2-1.2.4-1.8.4h-80.6c-2.2 0-3.8-1.8-3.8-3.8v-73.4c0-3.6 4.2-5.2 6.6-2.8z" opacity=".4" fill="url(#SVGID_2_)"/>
  <path class="st8" d="M130.8 648h80.6c.6 0 1.2-.2 1.8-.4l1 1c2.4 2.4.8 6.5-2.8 6.5h-80.6c-2.2 0-3.8-1.8-3.8-3.8v-7.1c0 2 1.8 3.8 3.8 3.8z"/>
  <path class="st5" d="M509.8 654.9h-83.3c-2.8 0-5.1-3.6-5.1-8.1l-1-491.8c0-4.6 2.4-8.1 5.1-8.1h83.3c2.8 0 5.1 3.6 5.1 8.1l1 491.8c0 4.6-2.3 8.1-5.1 8.1z"/>
  <path opacity=".24" fill="#001e3a" d="M465.9 183.7l-274.1-20v20h-34.5v452.2h617.1V183.7z"/>
  <path class="st11" d="M465.9 165.7h316.3v463.7H465.9zM149.6 165.7h316.3v463.7H149.6z"/>
  <path class="st12" d="M465.9 629.2l-306-9.3V156.2l306 9.5z"/>
  <path class="st0" d="M782.1 629.2v-3M149.6 626.2v3"/>
  <path class="st13" d="M464.7 629.4l-288.8-12.5V163.3l288.8 26.1z"/>
  <path class="st14" d="M465.9 629.2l-281.1-20.4V137.6l281.1 28.1z"/>
  <linearGradient id="SVGID_3_" gradientUnits="userSpaceOnUse" x1="184.8" y1="384.195" x2="465.7" y2="384.195" gradientTransform="translate(0 .205)">
    <stop offset=".286" stop-color="#569ab1" stop-opacity="0"/>
    <stop offset="1" stop-color="#569ab1"/>
  </linearGradient>
  <path opacity=".2" fill="url(#SVGID_3_)" d="M465.7 629.2L184.8 609V139.6l280.9 27.9z"/>
  <path class="st6" d="M277.1 661.1l22.1 15v-54.2h-44.3v54.2z"/>
  <path class="st8" d="M254.9 621.9h44.3V633h-44.3z"/>
  <path class="st12" d="M466.5 629.2l306.1-9.3V156.2l-306.1 9.5z"/>
  <path class="st13" d="M466.7 628.8l289.7-11.9V163.3l-289.7 25.6z"/>
  <path class="st14" d="M466.5 629.2l281-20.4V137.6l-281 28.1z"/>
  <linearGradient id="SVGID_4_" gradientUnits="userSpaceOnUse" x1="-2555.049" y1="384.195" x2="-2275.149" y2="384.195" gradientTransform="matrix(-1 0 0 1 -1807.549 .205)">
    <stop offset=".286" stop-color="#569ab1" stop-opacity="0"/>
    <stop offset="1" stop-color="#569ab1"/>
  </linearGradient>
  <path opacity=".42" fill="url(#SVGID_4_)" d="M467.6 629.2L747.5 609V139.6l-279.9 27.9z"/>
  <g class="st17">
    <path class="st18" d="M703 385.6l-50.3 3.5v-5.7l50.3-3.8zM648.7 214.6l-143.5 10.3v-6l143.5-10.3zM611.7 228l-106.5 7.8v-6l106.5-7.7zM568.2 242.1l-63 4.5v-5.9l63-4.5zM635.3 237.3l-63.2 4.6V236l63.2-4.6zM627.2 248.8l-122 8.7v-5.9l122-8.7zM596.1 261.9l-90.9 6.5v-5.9l90.9-6.6zM648.7 282.9l-143.5 10.3v-5.8l143.5-10.5zM611.7 296.5l-106.5 7.7v-5.9l106.5-7.7zM668.7 292.4l-52.4 3.7v-5.9l52.4-3.8zM568.2 310.6l-63 4.5v-5.9l63-4.6zM635.3 305.6l-63.2 4.6v-6l63.2-4.5zM703 300.7l-63.6 4.7v-5.9l63.6-4.6zM627.2 317.1l-122 8.9v-5.9l122-8.9zM690.3 312.5l-59.8 4.4V311l59.8-4.4zM596.1 330.4l-90.9 6.5V331l90.9-6.6zM701 322.6L600.2 330v-6l100.8-7.1zM540.7 345.2l-35.5 2.6v-6l35.5-2.5zM613.7 339.9l-68.7 4.9v-5.7l68.7-5.2zM666.7 336.1l-48.8 3.6v-6l48.8-3.5zM655.5 347.8l-150.3 10.9v-6l150.3-10.9zM713.1 343.6l-54.1 4v-6l54.1-3.9zM564.2 365.2l-59 4.3v-5.9l59-4.1zM627.2 360.6l-59 4.4v-5.9l59-4.2zM697 355.7l-66.1 4.7v-5.9l66.1-4.7zM538.7 378.1l-33.5 2.3v-5.9l33.5-2.4zM594.3 373.9l-52.8 4v-6l52.8-3.7zM619.8 372.1l-22.1 1.6v-5.9l22.1-1.6zM677.6 368l-53.8 3.9V366l53.8-4zM621.8 382.8l-116.6 8.5v-5.9l116.6-8.3zM709.7 376.5l-83.9 6.1v-5.9l83.9-6zM592.5 525.5l-87.3 6.3v-5.9l87.3-6.3zM680.2 519.2l-85.1 6.1v-5.9l85.1-6.2zM631.9 533.6l-126.7 9.1v-5.9l126.7-9.1zM695.8 528.9l-59.9 4.3v-5.9l59.9-4.2zM552.2 550.2l-47 3.4v-5.9l47-3.4zM626.6 544.9l-72.1 5.1v-5.9l72.1-5.1zM566.6 562.1l-61.4 4.6v-6l61.4-4.3zM654.7 555.8l-85.9 6.3v-5.9l85.9-6.2zM623.6 569l-118.4 8.6v-6l118.4-8.5zM654.7 566.7l-28.9 2.1v-5.9l28.9-2zM685.5 564.5l-28.8 2.2v-6l28.8-2.1zM566.2 584.1l-61 4.3v-5.9l61-4.4zM668.7 576.6l-100.3 7.3v-6l100.3-7.1z"/>
  </g>
  <path class="st18" d="M333.1 190.4l-113-6.9v-9.3l113 6.9zM418.2 195.8l-70.5-4.4v-9.3l70.5 4.4zM615.7 174.4l-113 8.1v9.1l113-8.1zM700.8 168.3l-70.5 4.9v9.3l70.5-5.1z"/>
  <g class="st17">
    <path class="st18" d="M363.1 390.7l-143.6-8.9v-5.9l143.6 9.1zM228.8 274l180.3 11.3v79.6l-180.3-11.3V274m-9.3-9.7v98L418 374.5v-98l-198.5-12.2zM417.4 394.3l-50.3-3.2v-5.9l50.3 3.1zM326.1 399.4l-106.6-6.7v-5.9l106.6 6.7zM383.1 403l-52.4-3.4v-5.7l52.4 3.2zM282.6 407.5l-63.1-3.9v-5.8l63.1 3.8zM349.7 411.7l-63.1-4V402l63.1 4zM417.4 416.1l-63.6-4v-5.9l63.6 3.9zM341.6 422.2l-122.1-7.7v-5.8l122.1 7.6zM404.5 426.1l-59.6-3.7v-5.9l59.6 3.7zM310.5 431.1l-91-5.7v-5.8l91 5.6zM363.1 215.8l-143.6-8.9v-6l143.6 9.1zM326.1 224.5l-106.6-6.8v-5.9l106.6 6.7zM282.6 232.6l-63.1-4v-5.9l63.1 4zM349.7 236.7l-63.1-3.9v-5.9l63.1 3.9zM341.6 247.2l-122.1-7.7v-5.9l122.1 7.7zM310.5 256.1l-91-5.7v-5.9l91 5.7zM415.4 437.6l-100.7-6.3v-5.7l100.7 6.1zM255.1 438.6l-35.6-2.4v-5.7l35.6 2.2zM328.1 443.2l-68.7-4.4v-5.9l68.7 4.3zM381.2 446.3l-48.9-2.9v-6l48.9 3.2zM369.7 456.6l-150.2-9.5v-5.7l150.2 9.3zM427.5 460.2l-54.1-3.4v-5.9l54.1 3.4zM278.6 461.8l-59.1-3.8v-5.7l59.1 3.5zM341.6 465.7l-59-3.7v-5.8l59 3.6zM411.2 470.1l-65.9-4.2V460l65.9 4.1zM253.1 471.1l-33.6-2v-5.9l33.6 1.9zM308.7 474.6l-53-3.3v-6l53 3.4zM334.3 476.2l-22.2-1.4v-5.9l22.2 1.4zM392 479.8l-54-3.4v-5.9l54 3.3zM336.2 487.1L219.5 480v-6l116.7 7.4zM424.1 492.6l-83.9-5.1v-5.9l83.9 5.1zM306.9 507.1l-87.4-5.3v-6l87.4 5.6zM394.6 512.6l-85.3-5.3v-5.9l85.3 5.3zM346.3 520.6l-126.8-8v-5.9l126.8 7.9zM410.1 524.5l-59.8-3.7v-6l59.8 3.8zM266.6 526.5l-47.1-3v-5.9l47.1 3zM341 531l-72.1-4.5v-5.7l72.1 4.3zM281 552.4l-61.5-3.7v-6l61.5 4zM369.1 558l-85.9-5.4v-5.9l85.9 5.3zM338 566.9l-118.5-7.4v-5.9l118.5 7.5zM369.1 568.8l-28.9-1.7v-6l28.9 1.8zM400 570.8l-28.9-1.8v-5.9l28.9 1.8zM280.6 574.2l-61.1-3.8v-5.9l61.1 3.9zM383.1 580.7l-100.3-6.3v-6l100.3 6.4z"/>
  </g>
  <linearGradient id="SVGID_5_" gradientUnits="userSpaceOnUse" x1="604.4" y1="413.495" x2="604.4" y2="413.495" gradientTransform="translate(0 .205)">
    <stop offset="0" stop-color="#004574" stop-opacity="0"/>
    <stop offset=".282" stop-color="#004574"/>
    <stop offset=".512" stop-color="#004b79"/>
    <stop offset="1" stop-color="#17b8e1"/>
  </linearGradient>
  <linearGradient id="SVGID_6_" gradientUnits="userSpaceOnUse" x1="604" y1="478.695" x2="604" y2="4.128" gradientTransform="translate(0 .205)">
    <stop offset="0" stop-color="#17b8e1" stop-opacity="0"/>
    <stop offset=".24" stop-color="#17b8e1" stop-opacity=".913"/>
    <stop offset=".263" stop-color="#17b8e1"/>
    <stop offset=".355" stop-color="#10b4de"/>
    <stop offset=".516" stop-color="#01afda"/>
    <stop offset=".55" stop-color="#089ec9"/>
    <stop offset=".621" stop-color="#0181ad"/>
    <stop offset=".696" stop-color="#006d98"/>
    <stop offset=".778" stop-color="#035d88"/>
    <stop offset=".872" stop-color="#005480"/>
    <stop offset="1" stop-color="#00517e"/>
  </linearGradient>
  <path d="M719.8 135.2c-16.8 1-30.5 15.2-30.7 32.3-.2 11.9 5.9 22.4 15.2 28.3v32.9c0 18.2-9.1 35.2-24.5 45.1l-58.6 37.8c-2.2 1.4-4.4 3-6.3 4.6v-8.7h.4V281c0-18.4 8.1-36 22.4-47.7l12.7-10.5c17.4-14.4 27.3-35.6 27.3-58.2v-40.4c8.7-3 15-11.7 14.2-21.8-.8-9.9-8.7-18-18.6-19.2-12.7-1.4-23.6 8.5-23.6 21 0 9.3 5.9 17 14.2 20v40.2c0 18.4-8.1 36-22.4 47.7l-12.7 10.5c-5.3 4.6-10.1 9.7-14.1 15.2V65.2c9.7-5.9 16-16.8 15.6-29.1-.6-16.6-13.9-30.5-30.7-31.7-19-1.2-34.8 13.9-34.8 32.7 0 11.9 6.3 22.2 15.6 27.9v91.2c-2.8-4.2-6.5-7.5-10.9-10.1l-11.7-6.9c-8.7-5.1-14.1-14.4-14.1-24.5V102c3.2-1.2 5.5-4.4 5.5-7.9 0-4.7-3.8-8.5-8.5-8.5s-8.5 3.8-8.5 8.5c0 3.4 2 6.3 4.9 7.7v12.9c0 12.3 6.5 23.9 17.2 30.3l11.7 6.9c8.7 5.1 14.1 14.4 14.1 24.5v3.2h.4v80.6c-1.2-1.2-2.6-2.2-4-3.2L528 218.7c-16.4-12.7-25.7-32.1-25.7-52.6v-13.9c10.1-5.7 16.8-16.6 16.4-29.1-.4-16.8-13.9-30.9-30.7-32.1-19-1.4-34.8 13.7-34.8 32.5 0 11.5 5.9 21.6 14.8 27.5v14.8c0 31.3 14.1 60.4 38.8 79.6l48.9 38.2c13.7 10.7 22.4 25.7 24.9 42.4v73.2c-2.4-2.6-5.1-4.7-8.3-6.7L551 379.2c-9.5-5.9-15.2-16-15.2-27.1V330c9.7-2.8 16.6-12.1 15.2-23-1.2-9.5-8.9-17.2-18.4-18.2-12.7-1.4-23.6 8.5-23.6 21 0 9.7 6.5 17.8 15.4 20.2v22.2c0 15 7.7 28.9 20.6 36.8l21.4 13.3c.4.2 1 .6 1.4.8 8.3 5.7 12.9 15.2 12.9 25.3v50.5l34.8-5.3-.2-88.7c0-18.2 9.1-35.2 24.5-45.1l58.6-37.8c25.1-16.2 40.2-43.7 40.2-73.8V196c9.7-5.7 16.2-16.2 16.2-28.3-.2-18.6-16-33.7-35-32.5zM661 104.1c0-5.3 4.4-9.7 9.7-9.7s9.7 4.4 9.7 9.7-4.4 9.7-9.7 9.7c-5.3.2-9.7-4.1-9.7-9.7zM541.1 90.9c1.8 0 3.4 1.6 3.4 3.4s-1.6 3.4-3.4 3.4c-1.8 0-3.4-1.6-3.4-3.4s1.6-3.4 3.4-3.4zm-55 42.7c-5.5 0-10.1-4.6-10.1-10.1s4.6-10.1 10.1-10.1 10.1 4.6 10.1 10.1c-.1 5.6-4.6 10.1-10.1 10.1zm34.4 176.2c0-5.3 4.4-9.7 9.7-9.7s9.7 4.4 9.7 9.7c0 5.3-4.4 9.7-9.7 9.7s-9.7-4.4-9.7-9.7zm77.4-262.7c-5.5 0-10.1-4.6-10.1-10.1s4.5-10 10.1-10c5.5 0 10.1 4.6 10.1 10.1s-4.6 10-10.1 10zM721.8 178c-5.5 0-10.1-4.6-10.1-10.1s4.6-10.1 10.1-10.1 10.1 4.6 10.1 10.1-4.6 10.1-10.1 10.1z" fill="url(#SVGID_6_)"/>
  <g>
    <path class="st2" d="M763.7 118.6c-8.4 0-15.2-6.8-15.2-15.2s6.8-15.2 15.2-15.2c8.4 0 15.2 6.8 15.2 15.2s-6.8 15.2-15.2 15.2zm0-20.2c-2.7 0-5 2.2-5 5s2.2 5 5 5c2.7 0 5-2.2 5-5s-2.3-5-5-5z"/>
  </g>
  <g>
    <path class="st2" d="M820.2 221.1h-10.1v-6.7c0-9.5-4.2-18.4-11.6-24.4l-24.3-19.6c-9.8-7.8-15.4-19.6-15.4-32.2v-25.7h10.1v25.7c0 9.6 4.2 18.4 11.6 24.4l24.3 19.6c9.8 7.9 15.4 19.7 15.4 32.2v6.7z"/>
  </g>
  <g>
    <path class="st2" d="M86.9 171.2h15.4v140H86.9z"/>
  </g>
  <path class="st2" d="M132.6 415.5l-10.7-10.7c-12.7-12.7-19.6-29.3-19.6-47.3v-51.3c0-20.4 9.1-39.4 25.1-52.1l16.2-13.1c19.6-15.6 30.9-39 30.9-64.1v-124h-15.4V177c0 20.4-9.1 39.4-25.1 52.1l-16.2 13.1c-19.6 15.6-30.9 39-30.9 64.1v51.3c0 22 8.5 42.6 24.1 58.2l21.6 21.6v-21.9z"/>
  <g>
    <path class="st2" d="M167.4 185.7h-7.7v-13.5c0-8.4-3.9-16.8-10.4-22.4l-22.4-19c-8.3-7-13.1-17.3-13.1-28.2V81.2h7.7v21.4c0 8.7 3.8 16.8 10.3 22.3l22.4 19c8.3 7.2 13.1 17.5 13.1 28.2v13.6z"/>
  </g>
  <g>
    <path class="st3" d="M174.4 148.3h-6.9V139c0-8.8 3.8-17.1 10.5-22.6l16.2-13.8c5.1-4.4 8.1-10.7 8.1-17.4V62.6h6.9v22.6c0 8.7-3.8 17-10.5 22.6l-16.2 13.8c-5.1 4.2-8.1 10.7-8.1 17.4v9.3z"/>
  </g>
  <path opacity=".2" fill="#001e3a" d="M746.7 579.5l-168.2 9.9V411.3h168.2z"/>
  <g>
    <path fill="#001e3a" d="M528.4 362.2h469.2v198.7H528.4z"/>
    <path class="st6" d="M675.9 405.8h34v10.5h-22.2v7.3h21.6v10.5h-21.6v18.4h-12.1v-46.7h.3zM739.8 436.6h-6.1v15.6h-12.1v-46.5H745c10.3 0 16.2 6.9 16.2 15.4 0 8.1-4.9 12.5-9.3 13.9l9.5 17h-13.7l-7.9-15.4zm3.4-20.3h-9.5v9.9h9.5c3.2 0 5.7-1.8 5.7-4.9 0-3.3-2.6-5-5.7-5zM772.8 405.8h34v10.5h-22.2v7.3h21.6v10.5h-21.6v7.9h22.2v10.5h-34v-46.7zM819.1 405.8h34v10.5h-22v7.3h21.6v10.5h-21.6v7.9h22.2v10.5h-34v-46.7h-.2z"/>
    <path class="st14" d="M617.7 479.6c10.1 0 17.4 7.1 17.4 17s-7.3 17-17.4 17c-9.9 0-17.2-7.1-17.2-17 0-9.7 7.3-17 17.2-17zm0 6.3c-6.1 0-10.1 4.7-10.1 10.9s4 10.9 10.1 10.9 10.1-4.7 10.1-10.9-4-10.9-10.1-10.9zM655.9 498.8c0-3.4-1.8-4.6-4.4-4.6-2.6 0-4.4 1.4-5.5 2.8v16h-6.3v-23.9h6.3v3.2c1.6-1.8 4.6-3.8 8.3-3.8 5.3 0 7.7 3 7.7 7.7V513h-6.3v-14.2h.2zM668.5 480.2h6.3v33.1h-6.3v-33.1zM680.4 483c0-2.2 1.8-3.8 3.8-3.8 2.2 0 3.8 1.6 3.8 3.8s-1.8 3.8-3.8 3.8-3.8-1.7-3.8-3.8zm.6 6.3h6.3v23.9H681v-23.9zM709.7 498.8c0-3.4-1.8-4.6-4.4-4.6-2.6 0-4.4 1.4-5.5 2.8v16h-6.3v-23.9h6.3v3.2c1.6-1.8 4.6-3.8 8.3-3.8 5.3 0 7.7 3 7.7 7.7V513h-6.3v-14.2h.2zM733.3 488.7c7.1 0 12.1 5.3 12.1 13.3v1.4h-17.8c.4 3 2.8 5.5 6.9 5.5 2.2 0 4.9-.8 6.3-2.4l2.8 4.2c-2.4 2.2-6.1 3.4-9.9 3.4-7.3 0-12.9-4.9-12.9-12.7 0-7 5.1-12.7 12.5-12.7zm-6 10.3h11.9c-.2-2.4-1.8-5.3-5.9-5.3-4 .1-5.8 2.9-6 5.3zM759.2 480.2h8.1l9.1 25.5 9.1-25.5h8.1l-12.6 33h-9.1l-12.7-33zM804.3 488.7c7.1 0 12.1 5.3 12.1 13.3v1.4h-17.8c.4 3 2.8 5.5 6.9 5.5 2.2 0 4.9-.8 6.3-2.4l2.8 4.2c-2.4 2.2-6.1 3.4-9.9 3.4-7.3 0-12.9-4.9-12.9-12.7 0-7 5.2-12.7 12.5-12.7zm-5.9 10.3h11.9c-.2-2.4-1.8-5.3-5.9-5.3-4.1.1-5.6 2.9-6 5.3zM820.9 489.3h6.3v3.4c1.8-2.2 4.7-3.8 7.7-3.8v6.1c-.4-.2-1-.2-1.8-.2-2.2 0-4.9 1.2-5.9 2.8v15.8h-6.3v-24.1zM839.3 505.7c1.8 1.6 5.3 3.4 8.3 3.4 2.8 0 4-1.2 4-2.6 0-1.6-2.2-2.2-4.7-2.6-4.2-.8-9.5-1.8-9.5-7.5 0-4 3.6-7.5 9.9-7.5 4.2 0 7.3 1.4 9.7 3.4l-2.6 4.4c-1.4-1.6-4.2-2.8-7.1-2.8-2.4 0-3.8 1-3.8 2.4s2 1.8 4.6 2.4c4.2.8 9.7 2 9.7 7.9 0 4.4-3.8 7.7-10.3 7.7-4.2 0-8.1-1.4-10.7-3.8l2.5-4.8zM861.7 483c0-2.2 1.8-3.8 3.8-3.8 2.2 0 3.8 1.6 3.8 3.8s-1.8 3.8-3.8 3.8c-2-.1-3.8-1.7-3.8-3.8zm.8 6.3h6.3v23.9h-6.3v-23.9zM873.4 501.4c0-6.7 4.7-12.5 12.7-12.5 7.9 0 12.7 5.7 12.7 12.5 0 6.9-4.7 12.7-12.7 12.7-8-.3-12.7-6-12.7-12.7zm18.8 0c0-3.8-2.2-6.9-6.1-6.9-4 0-6.1 3.2-6.1 6.9s2.2 6.9 6.1 6.9 6.1-3.2 6.1-6.9zM919.7 498.8c0-3.4-1.8-4.6-4.4-4.6s-4.4 1.4-5.5 2.8v16h-6.3v-23.9h6.3v3.2c1.6-1.8 4.6-3.8 8.3-3.8 5.3 0 7.7 3 7.7 7.7V513h-6.3v-14.2h.2z"/>
  </g>
</svg>