 <svg version="1.0" xmlns="http://www.w3.org/2000/svg" width="700.000000pt" height="429.000000pt" viewBox="0 0 700.000000 429.000000" preserveAspectRatio="xMidYMid meet">
<metadata>
Created by potrace 1.12, written by Peter Selinger 2001-2015
</metadata>
<g transform="translate(0.000000,429.000000) scale(0.100000,-0.100000)" fill="#000000" stroke="none">
<path d="M3390 4035 c-14 -8 -35 -14 -47 -15 -12 0 -25 -4 -28 -10 -3 -5 -21
-10 -40 -10 -19 0 -37 -4 -40 -10 -3 -5 -19 -10 -34 -10 -16 0 -34 -7 -41 -15
-7 -8 -27 -15 -46 -15 -18 0 -36 -4 -39 -10 -3 -5 -19 -10 -34 -10 -16 0 -34
-6 -40 -14 -6 -8 -27 -17 -46 -20 -19 -3 -51 -9 -70 -12 -19 -3 -40 -12 -46
-20 -6 -8 -24 -14 -40 -14 -15 0 -31 -4 -34 -10 -3 -5 -21 -10 -40 -10 -19 0
-37 -4 -40 -10 -3 -5 -13 -10 -22 -10 -8 0 -29 -6 -46 -14 -32 -14 -65 -23
-124 -33 -18 -3 -38 -11 -44 -19 -6 -8 -21 -14 -32 -14 -25 0 -82 -17 -120
-36 -16 -8 -39 -14 -52 -14 -13 0 -27 -4 -30 -10 -3 -5 -19 -10 -34 -10 -16 0
-34 -7 -41 -15 -7 -8 -27 -15 -46 -15 -18 0 -36 -4 -39 -10 -3 -5 -21 -10 -40
-10 -19 0 -37 -4 -40 -10 -3 -5 -16 -10 -28 -10 -12 0 -35 -7 -51 -15 -15 -8
-41 -15 -57 -15 -15 0 -31 -4 -34 -10 -3 -5 -17 -10 -30 -10 -13 0 -27 -4 -30
-10 -3 -5 -14 -10 -23 -10 -9 0 -30 -7 -46 -15 -15 -8 -38 -15 -51 -15 -12 0
-28 -7 -35 -15 -7 -9 -29 -15 -51 -15 -21 0 -41 -4 -44 -10 -3 -5 -15 -10 -26
-10 -25 0 -120 -30 -133 -41 -6 -5 -22 -9 -37 -9 -15 0 -31 -4 -34 -10 -3 -5
-19 -10 -34 -10 -15 0 -36 -7 -47 -15 -10 -8 -31 -15 -46 -15 -15 0 -30 -4
-33 -10 -3 -5 -19 -10 -34 -10 -25 0 -64 -14 -113 -41 -10 -5 -31 -9 -47 -9
-17 0 -33 -4 -36 -10 -3 -5 -16 -10 -29 -10 -12 0 -31 -7 -42 -15 -10 -8 -36
-15 -56 -15 -20 0 -40 -4 -43 -10 -3 -5 -16 -10 -29 -10 -12 0 -31 -7 -42 -15
-10 -8 -28 -15 -38 -15 -25 0 -82 -18 -119 -36 -16 -8 -39 -14 -51 -14 -12 0
-30 -6 -41 -14 -20 -13 -20 -29 -20 -972 0 -769 3 -959 13 -959 10 0 12 187
12 944 0 688 3 947 11 957 6 8 24 14 39 14 15 0 33 6 39 14 6 8 26 16 44 19
59 10 92 19 124 33 17 8 38 14 46 14 9 0 19 5 22 10 3 6 19 10 36 10 16 0 37
4 47 9 30 15 86 33 117 38 31 5 44 9 108 37 21 9 49 16 62 16 13 0 27 5 30 10
3 6 18 10 33 10 15 0 36 7 46 15 11 8 30 15 42 15 13 0 26 5 29 10 3 6 21 10
38 10 18 0 41 7 51 15 11 8 32 15 47 15 15 0 31 5 34 10 3 6 17 10 31 10 13 0
32 4 42 9 9 5 44 16 77 26 33 9 68 21 77 26 10 5 29 9 43 9 14 0 28 7 31 15 4
8 18 15 32 15 25 0 58 9 132 35 68 24 107 35 123 35 10 0 25 4 35 9 25 12 82
32 122 41 89 22 113 29 123 39 6 6 23 11 38 11 15 0 31 5 34 10 3 6 16 10 29
10 12 0 31 7 42 15 10 8 33 15 51 15 17 0 35 5 38 10 3 6 16 10 28 10 24 1
123 33 134 44 3 3 19 6 34 6 15 0 31 5 34 10 3 6 19 10 34 10 15 0 36 7 47 15
10 8 31 15 46 15 15 0 30 5 33 10 3 6 19 10 34 10 15 0 36 7 47 15 10 8 31 15
46 15 15 0 30 5 33 10 3 6 19 10 34 10 16 0 34 6 40 14 6 8 26 16 44 19 69 12
157 37 199 58 27 14 93 11 124 -6 16 -8 39 -15 51 -15 12 0 25 -4 28 -10 3 -5
17 -10 31 -10 13 0 32 -4 42 -9 35 -17 88 -34 125 -38 20 -3 40 -9 43 -14 7
-12 51 -11 59 1 3 6 -2 13 -12 16 -10 3 -26 10 -35 15 -10 5 -31 9 -47 9 -16
0 -42 6 -58 14 -36 18 -95 36 -116 36 -10 0 -25 4 -35 9 -76 38 -172 50 -212
26z"></path>
<path d="M3925 3900 c-10 -16 4 -30 31 -30 13 0 32 -4 42 -9 32 -16 87 -33
120 -38 18 -3 35 -9 38 -14 3 -5 18 -9 34 -9 16 0 31 -4 34 -9 4 -5 24 -12 46
-16 22 -4 42 -11 46 -16 3 -5 15 -9 26 -9 26 0 83 -17 121 -36 16 -8 39 -14
52 -14 13 0 27 -4 30 -10 3 -5 21 -10 38 -10 18 0 41 -7 51 -15 11 -8 30 -15
42 -15 13 0 25 -4 28 -9 3 -5 20 -11 38 -14 33 -5 88 -22 120 -38 10 -5 29 -9
42 -9 13 0 37 -7 52 -15 16 -8 37 -15 46 -15 9 0 20 -4 23 -10 3 -5 16 -10 27
-10 26 0 83 -17 120 -36 14 -8 38 -14 51 -14 14 0 29 -4 32 -10 3 -5 20 -10
37 -10 16 0 42 -6 56 -14 15 -8 47 -19 72 -26 25 -7 60 -18 78 -26 18 -8 38
-12 43 -8 6 3 18 -1 27 -9 16 -14 35 -19 119 -34 18 -3 38 -11 44 -19 6 -8 24
-14 40 -14 15 0 31 -4 34 -10 3 -5 21 -10 39 -10 19 0 39 -7 46 -15 7 -8 25
-15 41 -15 15 0 31 -4 34 -10 3 -5 21 -10 40 -10 19 0 36 -4 39 -9 4 -5 24
-12 46 -16 22 -4 42 -11 46 -16 3 -5 18 -9 33 -9 16 0 34 -7 41 -15 7 -8 25
-15 41 -15 15 0 31 -4 34 -10 3 -5 19 -10 35 -10 16 0 32 -4 35 -10 3 -5 23
-10 44 -10 22 0 44 -6 51 -15 7 -8 25 -15 41 -15 17 0 32 -7 38 -18 6 -11 10
-361 10 -931 1 -1026 5 -971 -69 -971 -21 0 -42 -4 -45 -10 -3 -5 -19 -10 -34
-10 -16 0 -34 -7 -41 -15 -7 -8 -27 -15 -46 -15 -18 0 -36 -5 -39 -10 -3 -5
-19 -10 -34 -10 -15 0 -31 -4 -36 -9 -11 -9 -77 -31 -170 -56 -33 -9 -68 -20
-77 -26 -10 -5 -26 -9 -35 -9 -21 0 -103 -28 -118 -40 -5 -4 -23 -10 -40 -13
-64 -12 -91 -19 -110 -27 -41 -19 -111 -40 -132 -40 -12 0 -25 -4 -28 -10 -3
-5 -16 -10 -28 -10 -12 0 -35 -7 -51 -15 -15 -8 -36 -15 -45 -15 -26 0 -92
-26 -92 -36 0 -14 42 -17 54 -5 6 6 25 11 42 11 16 0 39 7 49 15 11 8 30 15
42 15 13 0 26 4 29 10 3 5 19 10 35 10 16 0 32 5 35 10 3 6 16 10 29 10 12 0
31 7 42 15 10 8 33 15 51 15 17 0 34 4 37 9 3 5 26 12 51 15 24 4 47 11 50 17
4 5 17 9 30 9 13 0 27 5 30 10 3 6 17 10 30 10 13 0 39 6 57 14 47 20 102 36
120 36 9 0 29 6 45 14 35 17 94 36 115 36 9 0 21 7 29 16 7 9 21 13 33 10 11
-3 34 1 50 8 17 7 51 19 76 26 25 7 64 21 88 32 l42 19 0 940 c0 826 2 940 15
945 27 11 17 34 -14 34 -17 0 -33 5 -36 10 -3 6 -23 10 -45 10 -23 0 -40 5
-43 14 -3 7 -20 16 -39 19 -84 15 -104 20 -120 34 -9 8 -25 12 -36 9 -11 -4
-24 0 -32 9 -7 8 -19 15 -27 15 -18 0 -112 28 -135 41 -10 5 -25 9 -35 9 -21
0 -80 18 -116 36 -16 8 -39 14 -52 14 -13 0 -27 5 -30 10 -3 6 -19 10 -34 10
-15 0 -36 7 -47 15 -10 8 -31 15 -46 15 -15 0 -30 5 -33 10 -3 6 -17 10 -29
10 -13 0 -37 7 -52 15 -16 8 -39 15 -51 15 -12 0 -25 5 -28 10 -3 6 -19 10
-35 10 -16 0 -32 5 -35 10 -3 6 -19 10 -34 10 -16 0 -34 7 -41 15 -7 8 -27 15
-46 15 -18 0 -36 5 -39 10 -3 6 -18 10 -33 10 -15 0 -36 7 -46 15 -11 8 -30
15 -42 15 -13 0 -26 5 -29 10 -3 6 -21 10 -38 10 -18 0 -41 7 -51 15 -11 8
-30 15 -42 15 -13 0 -26 5 -29 10 -3 6 -23 10 -43 10 -20 0 -46 7 -56 15 -11
8 -30 15 -42 15 -13 0 -26 5 -29 10 -3 6 -21 10 -40 10 -19 0 -36 4 -39 9 -7
11 -98 41 -125 41 -11 0 -23 5 -26 10 -3 6 -21 10 -39 10 -19 0 -39 7 -46 15
-7 8 -25 15 -41 15 -15 0 -31 5 -34 10 -3 6 -17 10 -29 10 -13 0 -37 7 -52 15
-16 8 -39 15 -51 15 -12 0 -25 5 -28 10 -3 6 -19 10 -34 10 -15 0 -32 5 -37
10 -6 6 -27 12 -47 13 -20 2 -42 8 -49 15 -7 7 -22 12 -34 12 -12 0 -35 7 -50
15 -34 17 -50 19 -59 5z"></path>
<path d="M3832 3138 c-8 -8 -12 -49 -12 -118 0 -98 2 -108 23 -128 13 -12 30
-22 39 -22 9 0 21 -7 28 -15 10 -12 9 -16 -4 -21 -9 -3 -23 -3 -32 0 -8 3 -24
1 -34 -4 -15 -8 -18 -23 -19 -92 0 -46 2 -100 5 -121 6 -40 8 -41 89 -67 38
-13 61 -18 160 -40 111 -24 140 -36 143 -59 5 -34 -13 -48 -36 -28 -29 27 -71
22 -82 -9 -11 -29 -11 -29 -110 2 -61 19 -148 24 -152 9 -2 -5 13 -11 32 -13
19 -1 44 -6 55 -11 28 -12 126 -40 150 -43 13 -2 21 -12 23 -31 2 -15 13 -32
24 -38 22 -12 107 -36 163 -46 17 -3 36 -10 42 -15 18 -14 43 -2 43 20 0 10 2
21 5 24 6 6 77 -8 110 -22 11 -5 34 -11 50 -14 17 -2 49 -10 72 -17 32 -10 46
-10 54 -2 17 17 2 33 -31 33 -16 0 -32 5 -35 10 -3 6 -21 10 -40 10 -19 0 -37
5 -40 10 -3 6 -23 10 -43 10 -51 0 -100 31 -104 67 -3 24 -8 29 -43 34 -42 5
-85 24 -85 37 0 28 53 41 88 23 29 -16 119 -41 147 -41 14 0 33 -4 43 -9 9 -5
43 -17 75 -27 83 -25 91 -15 94 114 1 53 -1 105 -4 116 -3 10 -25 27 -50 38
-52 23 -52 44 0 40 26 -3 38 1 45 15 15 29 14 205 -1 225 -14 18 -84 47 -132
55 -16 2 -39 8 -50 13 -11 5 -33 11 -50 14 -16 2 -57 12 -90 21 -33 9 -78 20
-100 25 -22 4 -69 17 -105 29 -36 11 -77 21 -93 21 -15 0 -35 4 -45 10 -23 12
-125 40 -149 40 -10 0 -24 -5 -31 -12z m78 -33 c14 -8 39 -14 56 -15 16 0 34
-4 40 -9 5 -5 27 -11 49 -14 22 -2 65 -12 95 -22 30 -9 73 -19 95 -22 22 -3
44 -9 49 -14 6 -5 23 -9 38 -9 16 0 41 -6 56 -13 15 -8 63 -22 107 -32 44 -10
84 -22 89 -27 6 -4 20 -8 32 -8 13 0 25 -4 29 -9 3 -6 6 -52 8 -103 l2 -93
-34 -3 c-19 -2 -44 1 -55 6 -39 18 -128 42 -157 42 -15 0 -31 5 -34 10 -3 6
-24 10 -45 10 -21 0 -42 5 -45 10 -3 6 -17 10 -29 10 -13 0 -40 7 -59 15 -20
8 -48 15 -62 15 -14 0 -33 4 -43 9 -26 13 -126 41 -149 41 -11 0 -34 7 -51 15
-30 15 -30 16 -34 113 -2 53 -2 100 0 105 5 11 24 8 52 -8z m95 -265 c3 -5 21
-10 38 -10 18 0 41 -7 51 -15 11 -8 37 -15 57 -15 21 0 41 -4 44 -10 3 -5 21
-10 39 -10 19 0 47 -7 62 -15 16 -8 41 -15 56 -15 15 0 30 -4 33 -10 3 -5 24
-10 45 -10 21 0 42 -4 45 -10 3 -5 16 -10 29 -10 12 0 31 -6 42 -14 15 -12 17
-17 7 -27 -10 -10 -16 -10 -25 -1 -7 7 -27 12 -44 12 -18 0 -35 4 -39 9 -3 5
-30 13 -60 16 -31 4 -58 11 -61 16 -3 5 -20 9 -39 9 -19 0 -36 4 -40 9 -3 6
-26 13 -50 17 -25 3 -48 10 -51 15 -3 5 -17 9 -32 9 -15 0 -49 7 -77 15 -48
15 -75 14 -75 -2 0 -5 37 -17 83 -27 45 -10 90 -22 99 -27 10 -5 33 -9 51 -9
19 0 37 -3 41 -7 8 -8 87 -30 141 -39 17 -3 44 -12 62 -20 17 -8 42 -14 56
-14 14 0 29 -4 32 -10 3 -5 21 -10 39 -10 17 0 44 -6 58 -12 25 -12 26 -17 30
-108 5 -110 -5 -133 -43 -106 -13 9 -36 16 -51 16 -15 0 -29 4 -32 9 -3 4 -25
11 -48 15 -86 12 -133 23 -155 34 -12 7 -32 12 -44 12 -12 0 -36 4 -53 9 -17
5 -58 17 -91 26 -33 9 -74 21 -91 26 -17 5 -40 9 -51 9 -11 0 -34 7 -49 15
-16 8 -39 15 -50 15 -34 0 -40 19 -39 120 l1 95 47 -3 c41 -3 47 -1 47 15 0
11 3 23 7 26 10 10 41 8 48 -3z m160 -440 c3 -5 23 -10 44 -10 20 0 42 -5 48
-11 6 -6 26 -14 45 -18 31 -6 33 -10 36 -50 3 -43 3 -43 -25 -38 -15 4 -48 10
-73 15 -69 13 -103 33 -112 67 -4 17 -6 36 -3 43 5 14 31 16 40 2z"></path>
<path d="M4042 3018 c3 -7 20 -14 39 -16 19 -2 48 -9 66 -17 17 -8 42 -15 56
-15 14 0 29 -4 32 -10 3 -5 23 -10 44 -10 20 0 41 -4 47 -10 13 -13 72 -17 76
-5 2 5 -6 11 -17 13 -11 2 -29 7 -40 12 -22 10 -102 29 -155 37 -19 3 -39 9
-45 13 -5 4 -32 11 -59 15 -38 5 -47 4 -44 -7z"></path>
<path d="M4040 2961 c0 -6 9 -11 19 -11 11 0 22 -4 25 -9 4 -5 29 -12 56 -16
27 -4 52 -11 56 -16 3 -5 21 -9 40 -9 19 0 42 -4 52 -9 26 -14 114 -33 121
-26 9 9 -28 29 -69 37 -48 9 -121 28 -145 38 -11 5 -38 11 -60 15 -22 4 -52 9
-67 12 -17 3 -28 1 -28 -6z"></path>
<path d="M4046 2911 c-11 -18 34 -36 149 -61 22 -5 58 -13 80 -18 22 -5 50
-14 62 -20 30 -17 63 -15 63 3 0 9 -9 15 -24 15 -14 0 -27 4 -30 9 -3 5 -23
11 -43 14 -59 9 -151 32 -159 40 -4 4 -18 7 -31 7 -14 0 -33 5 -43 10 -11 6
-21 6 -24 1z"></path>
<path d="M4469 2869 c-14 -27 4 -50 23 -31 15 15 28 16 28 2 0 -5 -7 -10 -16
-10 -21 0 -12 -24 10 -28 43 -9 61 46 24 72 -31 22 -55 20 -69 -5z"></path>
<path d="M4042 2719 c4 -13 73 -39 105 -39 12 0 32 -4 45 -9 13 -5 52 -17 88
-26 36 -9 73 -21 84 -27 12 -6 22 -6 29 1 16 16 -3 31 -49 37 -21 3 -48 9 -59
13 -29 12 -114 33 -153 39 -18 2 -35 8 -38 13 -8 13 -56 11 -52 -2z"></path>
<path d="M4046 2663 c-13 -14 19 -33 55 -33 21 0 41 -4 44 -10 3 -5 21 -10 39
-10 17 0 36 -4 42 -10 9 -9 70 -25 143 -37 46 -7 37 18 -10 30 -47 11 -118 27
-154 33 -16 3 -43 11 -60 19 -38 16 -91 26 -99 18z"></path>
<path d="M4042 2599 c5 -14 36 -25 103 -39 36 -7 146 -37 219 -60 16 -5 33 -7
38 -4 18 11 -14 32 -60 39 -26 4 -51 10 -57 15 -5 4 -26 10 -45 13 -19 3 -62
12 -95 22 -105 29 -108 29 -103 14z"></path>
<path d="M4477 2572 c-22 -25 -21 -34 6 -60 26 -25 47 -28 65 -10 18 18 14 45
-10 68 -27 25 -40 25 -61 2z m48 -22 c11 -17 -5 -32 -21 -19 -7 6 -11 15 -8
20 7 12 21 11 29 -1z"></path>
<path d="M1200 2914 c-99 -20 -148 -33 -188 -50 -18 -8 -39 -14 -46 -14 -7 0
-35 -12 -60 -27 -26 -16 -55 -32 -65 -38 -33 -19 -67 -50 -88 -80 -20 -27 -22
-47 -27 -192 -2 -90 -7 -166 -10 -171 -3 -5 -6 -102 -7 -215 -3 -197 -2 -209
17 -228 24 -24 128 -42 190 -33 44 6 66 -8 45 -29 -6 -6 -11 -38 -11 -71 0
-48 5 -67 26 -98 24 -34 31 -38 69 -38 26 0 48 6 55 15 7 8 23 15 36 15 14 0
32 4 42 9 9 5 58 22 107 36 50 15 115 36 145 47 30 11 69 22 85 25 17 3 35 9
40 13 6 5 28 13 51 19 47 12 134 94 134 125 0 11 5 34 11 51 18 48 -13 123
-58 141 -28 12 -33 19 -33 48 0 53 -47 134 -87 151 l-34 14 5 168 c2 92 7 202
10 244 5 68 3 80 -17 109 -13 19 -38 38 -62 46 -61 22 -189 25 -275 8z m268
-46 c47 -14 61 -53 30 -86 -40 -42 -173 -122 -203 -122 -7 0 -26 -7 -41 -15
-16 -8 -41 -15 -55 -15 -14 0 -29 -3 -33 -7 -15 -15 -123 -32 -205 -32 -118
-1 -201 26 -201 66 0 35 96 103 220 155 157 66 373 91 488 56z m44 -184 c-4
-58 -29 -89 -112 -138 -72 -44 -243 -106 -289 -106 -25 0 -39 -26 -22 -43 9
-9 16 -9 31 1 11 6 28 12 37 12 47 0 232 82 295 131 20 16 42 29 47 29 6 0 11
-21 11 -49 0 -44 -4 -52 -40 -84 -64 -59 -206 -127 -325 -156 -50 -13 -71 -23
-73 -35 -4 -16 2 -17 48 -11 28 4 64 13 78 21 15 8 33 14 40 14 7 0 20 4 30 9
9 5 48 24 86 41 38 18 86 48 107 67 31 28 40 32 45 20 13 -34 -1 -70 -34 -89
-38 -21 -75 -60 -98 -101 -13 -24 -19 -27 -45 -22 -45 10 -84 -3 -123 -41 -19
-19 -44 -34 -55 -34 -11 0 -23 -4 -26 -10 -3 -5 -17 -10 -31 -10 -19 0 -25 -5
-22 -17 2 -12 13 -18 28 -18 14 0 25 -6 24 -12 -1 -7 -2 -24 -2 -38 -2 -18
-13 -30 -41 -44 -21 -11 -51 -31 -67 -44 -52 -42 -239 -33 -264 13 -5 10 -10
42 -10 70 l0 52 33 -8 c55 -14 102 -11 102 6 0 9 -14 17 -35 21 -78 14 -87 22
-93 86 -5 62 3 83 26 65 8 -7 35 -15 62 -18 42 -6 47 -5 44 11 -3 12 -20 22
-51 30 -66 17 -75 27 -73 83 2 56 11 77 28 63 7 -5 32 -11 57 -13 35 -2 45 0
45 12 0 9 -14 17 -37 21 -20 3 -48 13 -62 23 -23 15 -26 23 -26 75 0 67 6 78
33 54 16 -15 40 -18 157 -17 79 0 157 5 181 13 129 36 218 67 249 86 19 12 45
25 58 29 12 4 30 19 39 32 24 37 38 24 35 -32z m76 -421 c12 -13 22 -34 22
-47 0 -12 5 -27 10 -32 8 -8 7 -20 0 -39 -15 -40 -6 -57 25 -49 79 20 94 -133
20 -211 -18 -19 -42 -35 -53 -35 -11 0 -24 -4 -27 -10 -3 -5 -19 -10 -34 -10
-15 0 -31 -4 -36 -8 -6 -4 -37 -16 -70 -26 -33 -10 -68 -22 -77 -27 -10 -5
-26 -9 -35 -9 -10 0 -47 -11 -83 -23 -36 -13 -81 -29 -100 -36 -60 -22 -104
-31 -123 -25 -24 7 -47 56 -47 98 0 65 67 156 114 156 29 0 42 15 51 60 15 80
63 140 133 169 29 12 35 12 53 -5 23 -21 51 -10 58 22 5 27 69 104 95 114 32
12 79 1 104 -27z"></path>
<path d="M965 2421 c-26 -4 -40 -11 -40 -21 0 -11 12 -15 50 -15 43 0 50 3 50
19 0 23 -7 25 -60 17z"></path>
<path d="M965 2251 c-31 -5 -40 -10 -40 -26 0 -18 6 -20 45 -17 25 2 49 8 54
12 10 10 1 41 -11 39 -4 -1 -26 -5 -48 -8z"></path>
<path d="M960 2081 c-26 -4 -35 -11 -35 -26 0 -18 6 -20 45 -17 53 4 68 15 50
37 -7 8 -15 14 -19 14 -3 -1 -22 -4 -41 -8z"></path>
<path d="M2532 2899 c-35 -17 -84 -50 -108 -74 -49 -50 -114 -146 -114 -170 0
-24 -30 -65 -49 -65 -9 0 -37 -18 -64 -41 -109 -93 -131 -258 -45 -335 41 -36
84 -48 129 -35 21 6 56 15 77 20 20 6 60 17 89 25 28 9 61 16 72 16 11 0 23 5
26 10 3 6 18 10 33 10 15 0 40 7 56 15 15 8 35 15 44 15 16 0 41 6 128 34 29
9 59 16 68 16 16 0 21 2 86 35 54 28 117 93 145 152 19 41 25 69 25 123 0 81
-10 112 -47 146 -49 46 -151 72 -168 44 -11 -18 -44 -11 -60 14 -8 12 -37 35
-64 50 -72 39 -172 37 -259 -5z m235 -20 c21 -11 47 -30 58 -41 l20 -20 -25
-16 c-42 -28 -90 -79 -90 -96 0 -26 18 -19 56 24 49 54 85 70 161 70 103 0
153 -51 153 -155 0 -90 -83 -215 -162 -245 -18 -7 -42 -15 -53 -20 -22 -8
-109 -33 -170 -48 -82 -21 -161 -44 -180 -52 -11 -5 -33 -11 -50 -13 -45 -8
-117 -27 -141 -39 -12 -5 -49 -10 -83 -11 -67 0 -89 12 -116 66 -17 34 -20
113 -5 122 6 3 10 15 10 25 0 25 97 130 120 130 19 0 70 57 70 79 0 24 57 116
97 155 23 22 59 49 80 59 21 11 49 25 63 32 41 22 143 18 187 -6z"></path>
<path d="M5171 2661 c-21 -29 -22 -42 -25 -361 -3 -328 -3 -330 20 -363 22
-32 97 -67 145 -67 10 0 21 -4 24 -10 3 -5 21 -10 40 -10 19 0 36 -4 39 -9 4
-5 24 -12 46 -16 22 -4 42 -11 46 -16 3 -5 19 -9 35 -9 23 0 32 -6 40 -27 18
-49 58 -93 84 -93 13 0 26 -4 30 -9 3 -6 26 -13 50 -17 25 -3 48 -10 51 -15 3
-5 14 -9 26 -9 18 0 90 -20 143 -41 25 -9 68 -19 118 -26 31 -4 43 -1 63 18
l24 22 0 242 c0 195 -3 248 -15 272 -18 37 -42 58 -77 72 l-27 10 -3 118 -3
117 -40 28 c-22 15 -49 27 -59 28 -19 0 -57 10 -121 32 -33 11 -94 26 -140 35
-16 3 -35 9 -40 14 -6 4 -30 11 -53 15 -23 4 -45 11 -48 15 -3 5 -20 9 -37 9
-18 1 -43 7 -57 15 -14 8 -39 14 -57 15 -17 0 -35 5 -38 10 -3 6 -21 10 -39
10 -17 0 -36 4 -41 9 -6 5 -26 11 -47 15 -32 6 -38 3 -57 -23z m93 -20 c3 -5
20 -11 38 -14 18 -3 60 -13 93 -22 33 -9 71 -19 85 -22 14 -2 34 -8 45 -13 11
-5 31 -11 45 -13 23 -5 93 -24 275 -76 39 -11 82 -22 96 -25 49 -10 79 -43 79
-87 0 -44 -20 -60 -51 -41 -10 7 -31 12 -46 12 -16 0 -37 7 -47 15 -11 8 -32
15 -47 15 -15 0 -31 5 -34 10 -3 6 -15 10 -26 10 -11 0 -44 7 -72 16 -29 8
-69 19 -89 25 -87 21 -125 32 -163 44 -22 8 -55 17 -73 20 -29 6 -33 5 -30
-11 2 -12 16 -21 38 -26 55 -11 128 -33 136 -41 4 -4 22 -7 39 -7 17 0 35 -3
39 -7 4 -5 29 -13 54 -20 55 -14 97 -25 172 -48 30 -9 69 -19 85 -21 17 -3 39
-9 50 -14 11 -5 29 -10 40 -12 15 -2 21 -12 23 -42 l3 -38 -33 7 c-18 3 -49
12 -68 19 -66 25 -106 36 -131 36 -14 0 -29 4 -35 9 -5 4 -36 13 -68 20 -56
10 -61 10 -83 -11 -23 -21 -23 -25 -21 -185 4 -212 22 -220 26 -11 2 98 7 157
14 166 13 15 90 10 112 -7 6 -5 27 -11 46 -14 19 -3 60 -13 90 -22 82 -25 121
-35 164 -45 21 -4 49 -18 62 -31 23 -24 24 -27 27 -272 3 -173 1 -252 -7 -263
-13 -17 -51 -10 -182 33 -39 13 -78 23 -87 23 -10 0 -25 4 -35 9 -22 12 -117
41 -133 41 -7 0 -26 12 -41 27 -24 23 -28 35 -28 80 0 55 -11 68 -30 32 -9
-16 -19 -19 -47 -17 -44 4 -54 24 -19 38 19 7 26 17 28 37 3 59 -4 89 -27 113
-19 20 -23 35 -22 70 2 38 -4 52 -33 88 -29 37 -39 43 -61 38 -29 -6 -59 18
-59 47 0 20 -69 57 -105 57 -18 0 -28 -7 -35 -26 -19 -49 -30 -15 -23 74 3 48
6 99 5 115 -1 22 3 27 23 27 13 0 27 -4 30 -10 3 -5 13 -10 21 -10 29 0 9 35
-26 46 -31 10 -35 16 -38 49 -2 20 -1 43 2 51 6 15 62 19 70 5z m23 -369 c11
-9 23 -26 25 -37 4 -25 63 -65 87 -58 28 7 76 -59 62 -85 -14 -26 -3 -63 24
-87 32 -28 39 -98 10 -103 -11 -2 -27 -13 -36 -24 -13 -17 -19 -18 -42 -7 -30
14 -34 30 -12 49 38 32 -4 164 -69 216 -28 23 -49 30 -98 34 -59 5 -63 7 -63
30 0 16 8 28 23 35 12 5 22 15 22 20 0 14 21 35 35 35 5 0 20 -8 32 -18z m12
-152 c40 -20 72 -72 84 -137 8 -39 -23 -83 -59 -83 -31 0 -104 28 -127 49 -25
24 -32 149 -9 174 20 22 64 22 111 -3z"></path>
<path d="M5230 2595 c0 -16 27 -32 37 -21 7 7 -16 36 -28 36 -5 0 -9 -7 -9
-15z"></path>
<path d="M5296 2581 c-8 -12 21 -34 34 -26 8 5 8 11 -1 21 -13 16 -25 18 -33
5z"></path>
<path d="M5364 2559 c-10 -17 13 -36 27 -22 12 12 4 33 -11 33 -5 0 -12 -5
-16 -11z"></path>
<path d="M5450 2527 c0 -11 21 -19 165 -59 22 -6 55 -15 72 -21 24 -8 36 -8
44 0 9 9 2 16 -26 27 -21 9 -48 16 -61 16 -12 0 -26 5 -29 10 -3 6 -17 10 -29
10 -13 0 -40 7 -59 15 -44 18 -77 19 -77 2z"></path>
<path d="M5946 2401 c-3 -5 1 -14 8 -20 16 -13 32 2 21 19 -8 12 -22 13 -29 1z"></path>
<path d="M5721 2124 c-12 -15 -21 -31 -21 -36 0 -10 33 -73 52 -100 10 -13 6
-23 -20 -52 -39 -44 -41 -80 -7 -119 38 -43 72 -51 119 -30 l39 17 27 -33 c43
-51 73 -63 110 -45 27 14 30 20 30 63 0 50 2 47 -92 169 -18 23 -39 42 -47 42
-8 0 1 -18 23 -44 l36 -44 -36 -22 c-26 -17 -32 -26 -24 -34 8 -8 15 -7 28 2
9 7 23 15 31 19 33 15 77 -91 51 -122 -19 -23 -49 -9 -96 43 l-41 46 -30 -22
c-17 -12 -40 -22 -51 -22 -25 0 -72 47 -72 72 0 19 30 55 65 77 14 8 16 14 8
17 -18 8 -73 92 -73 113 0 42 54 55 85 21 13 -14 22 -17 29 -10 7 7 2 18 -19
35 -40 32 -78 32 -104 -1z"></path>
<path d="M5878 2040 c-73 -69 -58 -82 19 -15 28 25 60 45 72 45 11 0 30 -14
43 -30 15 -20 25 -27 32 -20 14 14 -52 80 -81 80 -14 0 -46 -23 -85 -60z"></path>
<path d="M6021 1959 c-7 -16 -10 -33 -7 -36 9 -9 32 17 41 45 10 34 -18 28
-34 -9z"></path>
<path d="M5810 1919 c0 -19 47 -65 57 -55 4 3 -7 21 -25 39 -22 22 -32 27 -32
16z"></path>
<path d="M3250 2130 c0 -5 11 -10 25 -10 14 0 25 5 25 10 0 6 -11 10 -25 10
-14 0 -25 -4 -25 -10z"></path>
<path d="M3520 2130 c0 -5 7 -10 15 -10 8 0 15 5 15 10 0 6 -7 10 -15 10 -8 0
-15 -4 -15 -10z"></path>
<path d="M3180 2110 c0 -5 7 -10 15 -10 8 0 15 5 15 10 0 6 -7 10 -15 10 -8 0
-15 -4 -15 -10z"></path>
<path d="M3590 2110 c0 -5 9 -10 20 -10 11 0 20 5 20 10 0 6 -9 10 -20 10 -11
0 -20 -4 -20 -10z"></path>
<path d="M3120 2080 c0 -5 5 -10 10 -10 6 0 10 5 10 10 0 6 -4 10 -10 10 -5 0
-10 -4 -10 -10z"></path>
<path d="M3655 2080 c3 -5 10 -10 16 -10 5 0 9 5 9 10 0 6 -7 10 -16 10 -8 0
-12 -4 -9 -10z"></path>
<path d="M3049 2047 c-20 -18 -54 -46 -75 -63 -40 -32 -144 -177 -144 -201 0
-7 5 -13 10 -13 6 0 10 4 10 10 0 16 100 153 126 173 13 10 24 25 24 32 0 7
10 15 23 19 27 6 82 61 70 69 -4 3 -25 -9 -44 -26z"></path>
<path d="M3740 2030 c0 -5 5 -10 10 -10 6 0 10 5 10 10 0 6 -4 10 -10 10 -5 0
-10 -4 -10 -10z"></path>
<path d="M3790 2007 c0 -8 20 -33 45 -56 25 -23 45 -44 45 -48 0 -3 16 -30 35
-59 19 -29 35 -57 35 -62 0 -6 8 -25 17 -44 9 -18 20 -41 25 -50 4 -10 8 -76
8 -148 0 -122 10 -166 23 -101 8 40 -4 230 -15 237 -4 3 -8 20 -8 39 0 19 -4
37 -10 40 -5 3 -10 13 -10 22 0 8 -13 32 -30 53 -16 21 -30 41 -30 45 0 10
-83 110 -107 129 -19 14 -23 14 -23 3z"></path>
<path d="M3203 1979 c-56 -26 -64 -43 -53 -110 12 -75 -6 -93 -92 -94 l-63 0
-22 -45 c-38 -77 -30 -115 30 -145 15 -7 24 -24 28 -50 8 -48 8 -49 -42 -81
-31 -19 -39 -30 -39 -54 0 -16 5 -32 10 -35 6 -3 10 -13 10 -21 0 -8 10 -28
22 -44 16 -23 30 -30 54 -30 18 0 36 5 39 10 12 20 54 10 73 -18 14 -20 17
-39 14 -75 -5 -56 4 -70 66 -97 71 -32 96 -27 129 23 42 61 72 62 126 3 41
-46 80 -59 104 -35 5 5 25 18 44 27 34 17 34 18 34 83 0 86 19 112 76 103 61
-10 86 1 109 48 11 23 20 58 20 79 0 31 -5 40 -39 62 -29 19 -40 34 -44 59 -6
41 -4 43 44 74 46 28 50 57 19 118 -32 63 -49 78 -84 70 -17 -3 -36 -11 -43
-16 -7 -6 -19 -6 -31 1 -36 19 -47 43 -47 105 0 60 0 61 -40 82 -22 13 -59 23
-81 23 -42 1 -57 -9 -79 -53 -15 -29 -102 -37 -112 -9 -11 33 -46 63 -72 62
-14 0 -45 -9 -68 -20z m399 -48 c14 -13 16 -23 9 -48 -14 -48 -1 -78 50 -117
43 -32 48 -34 68 -20 29 21 75 15 79 -11 2 -11 11 -27 19 -37 13 -14 10 -19
-31 -47 -46 -32 -53 -45 -54 -110 -2 -43 11 -67 45 -83 42 -21 49 -40 29 -82
-14 -29 -22 -36 -46 -36 -16 0 -32 5 -35 10 -12 19 -34 9 -79 -37 -49 -50 -55
-70 -30 -108 19 -29 14 -40 -36 -65 l-38 -20 -36 50 c-34 47 -38 50 -81 50
-46 0 -95 -22 -95 -44 0 -6 -9 -22 -19 -36 -15 -18 -22 -21 -33 -13 -7 6 -24
13 -38 15 -21 2 -25 8 -24 33 1 17 5 40 9 51 10 32 -70 114 -112 114 -17 0
-36 -7 -43 -15 -7 -8 -16 -15 -21 -15 -9 0 -59 74 -59 88 0 4 19 22 43 39 43
30 44 31 42 87 -2 60 -20 91 -62 107 -27 10 -29 34 -7 78 11 21 21 30 32 27
68 -18 72 -17 113 22 34 31 41 44 41 77 1 22 -2 50 -6 61 -6 18 -2 25 25 38
45 23 51 21 92 -24 33 -37 40 -40 87 -40 52 0 90 13 90 31 0 5 7 21 16 34 13
20 21 23 47 18 18 -3 40 -13 49 -22z"></path>
<path d="M3335 1702 c-73 -46 -102 -109 -92 -198 5 -52 39 -94 100 -126 99
-50 251 39 250 146 -1 120 -59 188 -167 194 -47 2 -68 -1 -91 -16z m103 -31
c9 -5 30 -15 45 -22 38 -18 57 -57 57 -116 -1 -76 -51 -123 -131 -123 -37 0
-51 6 -82 34 -35 32 -37 37 -37 94 0 69 14 91 75 122 47 22 50 23 73 11z"></path>
<path d="M2810 1715 c0 -14 5 -25 10 -25 6 0 10 11 10 25 0 14 -4 25 -10 25
-5 0 -10 -11 -10 -25z"></path>
<path d="M2780 1526 c0 -96 9 -132 25 -106 9 14 -6 210 -16 210 -5 0 -9 -47
-9 -104z"></path>
<path d="M2810 1355 c0 -14 5 -25 10 -25 6 0 10 11 10 25 0 14 -4 25 -10 25
-5 0 -10 -11 -10 -25z"></path>
<path d="M3965 1323 c-10 -27 -22 -52 -26 -57 -5 -6 -9 -16 -9 -24 0 -30 -145
-181 -213 -224 -24 -15 1 -17 29 -3 58 29 173 158 215 240 38 75 48 115 30
115 -4 0 -16 -21 -26 -47z"></path>
<path d="M2830 1287 c0 -19 63 -117 106 -164 49 -54 142 -128 151 -120 8 9
-16 36 -46 52 -34 17 -111 95 -131 132 -60 111 -80 135 -80 100z"></path>
<path d="M417 1164 c-12 -12 4 -24 33 -24 16 0 31 -4 34 -9 3 -5 20 -11 38
-14 18 -2 49 -10 68 -17 111 -41 143 -50 172 -50 14 0 31 -7 38 -15 7 -8 27
-15 46 -15 18 0 36 -4 39 -10 3 -5 19 -10 34 -10 16 0 34 -7 41 -15 7 -8 25
-15 41 -15 15 0 31 -4 34 -10 3 -5 19 -10 34 -10 16 0 42 -7 57 -15 16 -8 36
-12 45 -10 9 3 22 -1 29 -10 7 -8 27 -15 46 -15 18 0 35 -4 38 -9 7 -11 98
-41 125 -41 11 0 23 -4 26 -10 3 -5 19 -10 34 -10 16 0 34 -7 41 -15 7 -8 27
-15 46 -15 18 0 36 -4 39 -10 3 -5 16 -10 29 -10 12 0 31 -7 42 -15 10 -8 33
-15 51 -15 17 0 35 -4 38 -10 3 -5 17 -10 30 -10 13 0 36 -6 52 -14 15 -8 48
-20 73 -26 25 -7 55 -16 68 -21 13 -5 33 -9 46 -9 13 0 29 -6 35 -14 6 -8 26
-16 44 -19 60 -10 112 -23 132 -34 29 -15 88 -33 111 -33 10 0 28 -7 38 -15
11 -8 32 -15 47 -15 15 0 31 -5 34 -10 3 -5 17 -10 29 -10 13 0 37 -7 52 -15
16 -8 37 -15 46 -15 9 0 20 -4 23 -10 3 -5 21 -10 38 -10 18 0 41 -7 51 -15
11 -8 30 -15 42 -15 13 0 25 -4 28 -9 5 -8 19 -11 114 -27 20 -4 41 -13 45
-20 4 -8 23 -14 42 -14 19 0 37 -5 40 -10 3 -6 17 -10 29 -10 13 0 37 -7 52
-15 16 -8 39 -15 51 -15 12 0 25 -4 28 -10 3 -5 19 -10 35 -10 16 0 32 -5 35
-10 3 -6 19 -10 34 -10 16 0 34 -7 41 -15 7 -8 27 -15 44 -15 18 0 37 -5 43
-11 17 -17 176 5 194 27 6 8 24 14 40 14 15 0 31 5 34 10 3 6 19 10 35 10 16
0 32 5 35 10 3 6 19 10 34 10 15 0 36 7 47 15 10 8 31 15 46 15 15 0 30 5 33
10 3 6 21 10 39 10 17 0 37 5 43 11 10 10 43 20 113 36 14 3 32 11 40 18 14
12 31 16 115 31 31 6 45 10 108 38 21 9 45 16 54 16 22 0 80 18 116 36 16 8
39 14 52 14 13 0 27 5 30 10 3 6 18 10 32 10 13 0 37 6 51 14 39 20 95 36 125
36 14 0 29 5 32 10 3 6 14 10 23 10 9 0 30 7 46 15 15 8 41 15 57 15 15 0 31
5 34 10 3 6 16 10 29 10 12 0 31 7 42 15 10 8 33 15 49 15 17 0 35 4 40 9 6 5
24 11 40 13 17 2 30 8 30 13 0 14 -65 19 -78 6 -6 -6 -23 -11 -38 -11 -15 0
-32 -7 -39 -15 -7 -8 -25 -15 -41 -15 -15 0 -31 -5 -34 -10 -3 -6 -22 -10 -41
-10 -19 0 -42 -4 -52 -9 -52 -26 -96 -41 -122 -41 -16 0 -32 -4 -35 -10 -3 -5
-14 -10 -23 -10 -9 0 -30 -7 -46 -15 -15 -8 -39 -15 -52 -15 -12 0 -26 -5 -29
-10 -3 -6 -19 -10 -34 -10 -15 0 -36 -7 -47 -15 -10 -8 -31 -15 -46 -15 -15 0
-30 -4 -33 -10 -3 -5 -16 -10 -29 -10 -12 0 -51 -11 -86 -25 -35 -14 -76 -25
-90 -25 -15 0 -30 -3 -34 -7 -12 -12 -100 -43 -123 -43 -12 0 -25 -4 -28 -10
-3 -5 -19 -10 -34 -10 -16 0 -34 -7 -41 -15 -7 -8 -27 -15 -46 -15 -18 0 -36
-4 -39 -10 -3 -5 -18 -10 -33 -10 -15 0 -36 -7 -46 -15 -11 -8 -32 -15 -47
-15 -15 0 -31 -4 -34 -10 -3 -6 -19 -10 -35 -10 -16 0 -32 -4 -35 -10 -3 -5
-16 -10 -28 -10 -12 0 -35 -7 -51 -15 -15 -8 -39 -15 -52 -15 -12 0 -26 -4
-29 -10 -8 -12 -89 -13 -113 -1 -28 14 -87 31 -108 31 -11 0 -29 7 -40 15 -10
8 -31 15 -46 15 -15 0 -30 5 -33 10 -3 6 -19 10 -34 10 -16 0 -34 7 -41 15 -7
8 -27 15 -46 15 -18 0 -36 5 -39 10 -3 6 -23 10 -45 10 -23 0 -40 5 -43 14 -3
7 -20 16 -39 19 -84 15 -104 20 -120 34 -9 8 -25 12 -36 9 -11 -4 -24 0 -32 9
-7 8 -25 15 -41 15 -15 0 -31 5 -34 10 -3 6 -19 10 -34 10 -15 0 -36 7 -47 15
-10 8 -28 15 -39 15 -11 0 -45 9 -75 21 -30 12 -66 23 -80 26 -14 2 -34 8 -45
13 -11 5 -31 11 -45 13 -28 6 -86 25 -112 38 -10 5 -29 9 -42 9 -14 0 -27 4
-30 9 -3 5 -23 12 -43 16 -21 4 -42 10 -48 15 -9 7 -35 13 -112 27 -18 3 -38
11 -44 19 -6 8 -24 14 -40 14 -15 0 -31 5 -34 10 -3 6 -21 10 -38 10 -18 0
-41 7 -51 15 -11 8 -30 15 -42 15 -13 0 -26 5 -29 10 -3 6 -19 10 -35 10 -16
0 -32 5 -35 10 -3 6 -14 10 -23 10 -9 0 -30 7 -46 15 -15 8 -43 15 -60 15 -18
0 -36 4 -41 9 -6 4 -32 15 -60 24 -27 8 -79 25 -115 37 -36 12 -82 24 -103 27
-20 3 -40 9 -43 14 -3 5 -17 9 -32 9 -15 0 -36 7 -46 15 -11 8 -30 15 -42 15
-13 0 -26 5 -29 10 -3 6 -16 10 -27 10 -21 0 -57 10 -128 35 -69 24 -107 35
-126 35 -10 0 -28 7 -38 15 -11 8 -32 15 -47 15 -15 0 -31 5 -34 10 -7 11 -58
14 -68 4z"></path>
<path d="M3120 990 c0 -5 5 -10 10 -10 6 0 10 5 10 10 0 6 -4 10 -10 10 -5 0
-10 -4 -10 -10z"></path>
<path d="M3650 985 c-7 -8 -19 -15 -26 -15 -8 0 -14 -4 -14 -10 0 -5 4 -10 8
-10 14 0 71 30 77 41 10 15 -32 10 -45 -6z"></path>
<path d="M3170 960 c0 -5 9 -10 19 -10 11 0 23 -4 26 -10 3 -5 22 -10 41 -10
19 0 34 5 34 10 0 6 -15 10 -34 10 -19 0 -38 5 -41 10 -3 6 -15 10 -26 10 -10
0 -19 -4 -19 -10z"></path>
<path d="M3500 940 c0 -5 18 -10 40 -10 22 0 40 5 40 10 0 6 -18 10 -40 10
-22 0 -40 -4 -40 -10z"></path>
<path d="M3397 924 c-10 -11 3 -24 24 -24 10 0 19 7 19 15 0 15 -31 21 -43 9z"></path>
<path d="M3420 755 c0 -8 5 -15 10 -15 6 0 10 7 10 15 0 8 -4 15 -10 15 -5 0
-10 -7 -10 -15z"></path>
</g>
</svg>